<svg width="330" height="330" xmlns="http://www.w3.org/2000/svg" xmlns:xlink="http://www.w3.org/1999/xlink" overflow="hidden"><defs><clipPath id="clip0"><rect x="1631" y="2173" width="330" height="330"/></clipPath><clipPath id="clip1"><path d="M1823.14 2349.76 1901.74 2304.39 1947.11 2382.99 1868.51 2428.36Z" fill-rule="evenodd" clip-rule="evenodd"/></clipPath><clipPath id="clip2"><path d="M1823.14 2349.76 1901.74 2304.39 1947.11 2382.99 1868.51 2428.36Z" fill-rule="evenodd" clip-rule="evenodd"/></clipPath><clipPath id="clip3"><path d="M1823.14 2349.76 1901.74 2304.39 1947.11 2382.99 1868.51 2428.36Z" fill-rule="evenodd" clip-rule="evenodd"/></clipPath></defs><g clip-path="url(#clip0)" transform="translate(-1631 -2173)"><path d="M1796 2245.21C1788.41 2245.21 1782.25 2251.36 1782.25 2258.96 1782.25 2266.55 1788.41 2272.71 1796 2272.71 1803.59 2272.71 1809.75 2266.55 1809.75 2258.96 1809.73 2251.37 1803.58 2245.23 1796 2245.21ZM1796 2265.83C1792.2 2265.83 1789.13 2262.75 1789.13 2258.96 1789.13 2255.16 1792.2 2252.08 1796 2252.08 1799.8 2252.08 1802.88 2255.16 1802.88 2258.96 1802.88 2262.75 1799.8 2265.84 1796.01 2265.84 1796 2265.84 1796 2265.84 1796 2265.84Z" fill="#FFFFFF"/><path d="M1902.56 2430.88 1902.56 2420.5 1888.81 2420.5 1888.81 2313.94 1902.56 2313.94 1902.56 2296.75 1919.75 2296.75 1919.75 2289.87 1796 2214.25 1672.25 2289.87 1672.25 2296.75 1689.44 2296.75 1689.44 2313.94 1703.19 2313.94 1703.19 2420.5 1689.44 2420.5 1689.44 2430.88 1665.38 2448.07 1665.38 2461.75 1926.63 2461.75 1926.63 2448.08ZM1881.94 2420.5 1875.06 2420.5 1875.06 2313.94 1881.94 2313.94ZM1723.81 2313.94 1744.44 2313.94 1744.44 2420.5 1723.81 2420.5ZM1751.31 2313.94 1758.19 2313.94 1758.19 2420.5 1751.31 2420.5ZM1765.06 2313.94 1785.69 2313.94 1785.69 2420.5 1765.06 2420.5ZM1792.56 2313.94 1799.44 2313.94 1799.44 2420.5 1792.56 2420.5ZM1806.31 2313.94 1826.94 2313.94 1826.94 2420.5 1806.31 2420.5ZM1833.81 2313.94 1840.69 2313.94 1840.69 2420.5 1833.81 2420.5ZM1847.56 2313.94 1868.19 2313.94 1868.19 2420.5 1847.56 2420.5ZM1685.54 2289.81 1796 2222.32 1906.46 2289.81C1906.48 2289.82 1906.49 2289.83 1906.48 2289.85 1906.48 2289.86 1906.47 2289.87 1906.46 2289.87L1685.56 2289.87C1685.54 2289.87 1685.52 2289.85 1685.53 2289.83 1685.53 2289.82 1685.53 2289.82 1685.54 2289.81ZM1696.31 2296.75 1895.69 2296.75 1895.69 2307.06 1696.31 2307.06ZM1710.06 2313.94 1716.94 2313.94 1716.94 2420.5 1710.06 2420.5ZM1696.31 2434.42 1696.31 2427.37 1895.69 2427.37 1895.69 2434.42 1898.56 2436.48 1900.26 2437.69 1691.74 2437.69 1693.44 2436.48ZM1919.75 2454.87 1672.25 2454.87 1672.25 2451.62 1682.12 2444.56 1909.9 2444.56 1919.75 2451.62Z" fill="#FFFFFF"/><g clip-path="url(#clip1)"><g clip-path="url(#clip2)"><g clip-path="url(#clip3)"><path d="M1853.31 2340.75C1855.29 2340.59 1857.31 2341.06 1859.06 2342.02 1861.07 2343.04 1862.67 2344.3 1863.94 2345.75 1861.9 2349.77 1861.89 2354.68 1864.3 2358.86 1865.11 2360.25 1866.11 2361.42 1867.27 2362.49L1889.87 2349.45C1889.13 2345.51 1886.74 2341.76 1881.89 2339.21 1880.62 2338.52 1879.2 2338.14 1877.79 2337.97 1877.13 2336.06 1876.87 2333.92 1876.94 2331.59 1877.07 2329.55 1877.67 2327.56 1878.72 2325.97 1879.31 2325.09 1879.07 2323.92 1878.18 2323.34 1877.3 2322.76 1876.13 2323 1875.55 2323.88 1874.12 2326.12 1873.21 2328.72 1873.12 2331.39 1872.98 2333.98 1873.28 2336.21 1873.86 2338.17 1870.64 2338.82 1868.02 2340.34 1866.07 2342.44 1864.72 2341.04 1862.86 2339.71 1860.67 2338.58 1858.31 2337.32 1855.57 2336.72 1852.95 2336.92 1851.9 2336.98 1851.1 2337.88 1851.17 2338.93 1851.23 2339.99 1852.3 2340.9 1853.31 2340.75Z" fill="#37BD04"/><path d="M1927.32 2362.32 1911.87 2358.25C1911.4 2358.19 1910.9 2358.27 1910.36 2358.47L1903.73 2362.3C1902.81 2361.08 1901.76 2359.83 1900.67 2358.71L1906.67 2353.4C1907.47 2352.71 1907.78 2351.55 1907.56 2350.59L1903.05 2333.33C1902.62 2331.83 1901.13 2330.94 1899.58 2331.29 1898.08 2331.72 1897.2 2333.21 1897.55 2334.76L1901.61 2350.31 1896.62 2354.72C1895.42 2353.77 1894.37 2353.07 1893.41 2352.75L1868.69 2367.02C1868.49 2368.01 1868.49 2369.32 1868.83 2370.87L1861.37 2373.43 1850.76 2361.87C1849.68 2360.75 1847.9 2360.69 1846.73 2361.69 1845.61 2362.77 1845.54 2364.55 1846.55 2365.72L1858.42 2378.73C1859.23 2379.57 1860.4 2379.88 1861.47 2379.48L1870.18 2376.42C1870.69 2377.87 1871.2 2379.32 1871.67 2380.69L1865.53 2384.24C1865.17 2384.55 1864.85 2384.95 1864.58 2385.44L1860.38 2400.85C1859.79 2402.28 1860.44 2403.98 1861.88 2404.57 1863.31 2405.16 1865.01 2404.51 1865.6 2403.08L1869.59 2388.44 1873.93 2385.93C1874.27 2386.72 1874.65 2387.37 1874.94 2387.86 1875.69 2389.17 1876.61 2390.39 1877.65 2391.43L1872.37 2396.66C1871.65 2397.29 1871.4 2398.2 1871.55 2399.21L1874.47 2416.18C1874.74 2417.78 1876.2 2418.79 1877.74 2418.44 1878.03 2418.38 1878.41 2418.28 1878.66 2418.14 1879.64 2417.57 1880.24 2416.35 1880 2415.17L1877.25 2399.63 1882.1 2394.97C1886.96 2397.73 1892.89 2398.35 1898.31 2396.21 1898.71 2395.21 1898.68 2394.02 1898.12 2393.04L1889.04 2377.32C1888.52 2376.42 1888.88 2375.34 1889.7 2374.87 1890.6 2374.35 1891.68 2374.71 1892.15 2375.53L1901.27 2391.33C1901.84 2392.31 1902.85 2392.93 1903.84 2393.12 1908.28 2389.47 1910.7 2384.03 1910.7 2378.35L1917.74 2376.36 1929.83 2386.52C1930.72 2387.32 1932.08 2387.4 1933.06 2386.84 1933.31 2386.7 1933.59 2386.43 1933.79 2386.2 1934.82 2384.95 1934.67 2383.18 1933.47 2382.24L1920.18 2371.14C1919.51 2370.54 1918.52 2370.34 1917.56 2370.57L1909.86 2372.73C1909.39 2371.36 1908.85 2370.04 1908.14 2368.81 1907.81 2368.23 1907.43 2367.58 1906.97 2366.97L1911.88 2364.14 1926.52 2368.13C1928.06 2368.33 1929.47 2367.19 1929.68 2365.65 1930 2363.94 1928.86 2362.53 1927.32 2362.32Z" fill="#37BD04"/></g></g></g></g></svg>