<svg width="96" height="96" xmlns="http://www.w3.org/2000/svg" xmlns:xlink="http://www.w3.org/1999/xlink" overflow="hidden"><defs><clipPath id="clip0"><rect x="0" y="0" width="96" height="96"/></clipPath></defs><g clip-path="url(#clip0)"><path d="M59 21.867 59 48 48 48 48 17 22 17 22 40 11 40 11 79 85 79 85 25.117ZM24 19 46 19 46 48 37 48 37 40 24 40ZM35 77 26 77 26 71 22 71 22 77 13 77 13 42 35 42 35 77ZM59 77 50 77 50 71 46 71 46 77 37 77 37 50 59 50ZM83 77 74 77 74 71 70 71 70 77 61 77 61 24.133 83 26.883Z" fill="#37BD04"/><path d="M42 63.018 46 63.018 46 67.019 42 67.019Z" fill="#37BD04"/><path d="M50 63.018 54 63.018 54 67.019 50 67.019Z" fill="#37BD04"/><path d="M42 55 46 55 46 59.001 42 59.001Z" fill="#37BD04"/><path d="M50 55 54 55 54 59.001 50 59.001Z" fill="#37BD04"/><path d="M29 32.018 33 32.018 33 36.019 29 36.019Z" fill="#37BD04"/><path d="M37 32.018 41 32.018 41 36.019 37 36.019Z" fill="#37BD04"/><path d="M29 24 33 24 33 28.001 29 28.001Z" fill="#37BD04"/><path d="M37 24 41 24 41 28.001 37 28.001Z" fill="#37BD04"/><path d="M18.001 63.018 22.001 63.018 22.001 67.019 18.001 67.019Z" fill="#37BD04"/><path d="M26.001 63.018 30.001 63.018 30.001 67.019 26.001 67.019Z" fill="#37BD04"/><path d="M18.001 55 22.001 55 22.001 59.001 18.001 59.001Z" fill="#37BD04"/><path d="M26.001 55 30.001 55 30.001 59.001 26.001 59.001Z" fill="#37BD04"/><path d="M18.001 47 22.001 47 22.001 51.001 18.001 51.001Z" fill="#37BD04"/><path d="M26.001 47 30.001 47 30.001 51.001 26.001 51.001Z" fill="#37BD04"/><path d="M66 63.018 70 63.018 70 67.019 66 67.019Z" fill="#37BD04"/><path d="M74 63.018 78 63.018 78 67.019 74 67.019Z" fill="#37BD04"/><path d="M66 55 70 55 70 59.001 66 59.001Z" fill="#37BD04"/><path d="M74 55 78 55 78 59.001 74 59.001Z" fill="#37BD04"/><path d="M66 47 70 47 70 51.001 66 51.001Z" fill="#37BD04"/><path d="M74 47 78 47 78 51.001 74 51.001Z" fill="#37BD04"/><path d="M66 39.018 70 39.018 70 43.019 66 43.019Z" fill="#37BD04"/><path d="M74 39.018 78 39.018 78 43.019 74 43.019Z" fill="#37BD04"/><path d="M66 31 70 31 70 35.001 66 35.001Z" fill="#37BD04"/><path d="M74 31 78 31 78 35.001 74 35.001Z" fill="#37BD04"/></g></svg>