<svg width="352" height="330" xmlns="http://www.w3.org/2000/svg" xmlns:xlink="http://www.w3.org/1999/xlink" overflow="hidden"><defs><clipPath id="clip0"><rect x="1161" y="2558" width="352" height="330"/></clipPath><clipPath id="clip1"><rect x="1160" y="2557" width="331" height="331"/></clipPath><clipPath id="clip2"><rect x="1160" y="2557" width="331" height="331"/></clipPath><clipPath id="clip3"><rect x="1160" y="2557" width="331" height="331"/></clipPath><clipPath id="clip4"><path d="M1388.64 2721.01 1467.24 2675.64 1512.61 2754.24 1434.01 2799.61Z" fill-rule="evenodd" clip-rule="evenodd"/></clipPath><clipPath id="clip5"><path d="M1388.64 2721.01 1467.24 2675.64 1512.61 2754.24 1434.01 2799.61Z" fill-rule="evenodd" clip-rule="evenodd"/></clipPath><clipPath id="clip6"><path d="M1388.64 2721.01 1467.24 2675.64 1512.61 2754.24 1434.01 2799.61Z" fill-rule="evenodd" clip-rule="evenodd"/></clipPath></defs><g clip-path="url(#clip0)" transform="translate(-1161 -2558)"><g clip-path="url(#clip1)"><g clip-path="url(#clip2)"><g clip-path="url(#clip3)"><path d="M1363.81 2633.17 1363.81 2723 1326 2723 1326 2616.44 1236.62 2616.44 1236.62 2695.5 1198.81 2695.5 1198.81 2829.56 1453.19 2829.56 1453.19 2644.34ZM1243.5 2623.31 1319.12 2623.31 1319.12 2723 1288.19 2723 1288.19 2695.5 1243.5 2695.5ZM1281.31 2822.69 1250.37 2822.69 1250.37 2802.06 1236.62 2802.06 1236.62 2822.69 1205.69 2822.69 1205.69 2702.37 1281.31 2702.37 1281.31 2822.69ZM1363.81 2822.69 1332.87 2822.69 1332.87 2802.06 1319.12 2802.06 1319.12 2822.69 1288.19 2822.69 1288.19 2729.87 1363.81 2729.87ZM1446.31 2822.69 1415.37 2822.69 1415.37 2802.06 1401.62 2802.06 1401.62 2822.69 1370.69 2822.69 1370.69 2640.96 1446.31 2650.41Z" fill="#FFFFFF"/><path d="M1305.37 2774.62 1319.12 2774.62 1319.12 2788.38 1305.37 2788.38Z" fill="#FFFFFF"/><path d="M1332.87 2774.62 1346.62 2774.62 1346.62 2788.38 1332.87 2788.38Z" fill="#FFFFFF"/><path d="M1305.37 2747.06 1319.12 2747.06 1319.12 2760.82 1305.37 2760.82Z" fill="#FFFFFF"/><path d="M1332.87 2747.06 1346.62 2747.06 1346.62 2760.82 1332.87 2760.82Z" fill="#FFFFFF"/><path d="M1260.69 2668.06 1274.44 2668.06 1274.44 2681.82 1260.69 2681.82Z" fill="#FFFFFF"/><path d="M1288.19 2668.06 1301.94 2668.06 1301.94 2681.82 1288.19 2681.82Z" fill="#FFFFFF"/><path d="M1260.69 2640.5 1274.44 2640.5 1274.44 2654.25 1260.69 2654.25Z" fill="#FFFFFF"/><path d="M1288.19 2640.5 1301.94 2640.5 1301.94 2654.25 1288.19 2654.25Z" fill="#FFFFFF"/><path d="M1222.88 2774.62 1236.63 2774.62 1236.63 2788.38 1222.88 2788.38Z" fill="#FFFFFF"/><path d="M1250.38 2774.62 1264.13 2774.62 1264.13 2788.38 1250.38 2788.38Z" fill="#FFFFFF"/><path d="M1222.88 2747.06 1236.63 2747.06 1236.63 2760.82 1222.88 2760.82Z" fill="#FFFFFF"/><path d="M1250.38 2747.06 1264.13 2747.06 1264.13 2760.82 1250.38 2760.82Z" fill="#FFFFFF"/><path d="M1222.88 2719.56 1236.63 2719.56 1236.63 2733.32 1222.88 2733.32Z" fill="#FFFFFF"/><path d="M1250.38 2719.56 1264.13 2719.56 1264.13 2733.32 1250.38 2733.32Z" fill="#FFFFFF"/><path d="M1387.87 2774.62 1401.62 2774.62 1401.62 2788.38 1387.87 2788.38Z" fill="#FFFFFF"/><path d="M1415.37 2774.62 1429.12 2774.62 1429.12 2788.38 1415.37 2788.38Z" fill="#FFFFFF"/><path d="M1387.87 2747.06 1401.62 2747.06 1401.62 2760.82 1387.87 2760.82Z" fill="#FFFFFF"/><path d="M1415.37 2747.06 1429.12 2747.06 1429.12 2760.82 1415.37 2760.82Z" fill="#FFFFFF"/><path d="M1387.87 2719.56 1401.62 2719.56 1401.62 2733.32 1387.87 2733.32Z" fill="#FFFFFF"/><path d="M1415.37 2719.56 1429.12 2719.56 1429.12 2733.32 1415.37 2733.32Z" fill="#FFFFFF"/><path d="M1387.87 2692.12 1401.62 2692.12 1401.62 2705.88 1387.87 2705.88Z" fill="#FFFFFF"/><path d="M1415.37 2692.12 1429.12 2692.12 1429.12 2705.88 1415.37 2705.88Z" fill="#FFFFFF"/><path d="M1387.87 2664.56 1401.62 2664.56 1401.62 2678.32 1387.87 2678.32Z" fill="#FFFFFF"/><path d="M1415.37 2664.56 1429.12 2664.56 1429.12 2678.32 1415.37 2678.32Z" fill="#FFFFFF"/></g></g></g><g clip-path="url(#clip4)"><g clip-path="url(#clip5)"><g clip-path="url(#clip6)"><path d="M1418.81 2712C1420.79 2711.84 1422.81 2712.31 1424.56 2713.27 1426.57 2714.29 1428.17 2715.55 1429.44 2717 1427.4 2721.02 1427.39 2725.93 1429.8 2730.11 1430.61 2731.5 1431.61 2732.67 1432.77 2733.74L1455.37 2720.7C1454.63 2716.76 1452.24 2713.01 1447.39 2710.46 1446.12 2709.77 1444.7 2709.39 1443.29 2709.22 1442.63 2707.31 1442.37 2705.17 1442.44 2702.84 1442.57 2700.8 1443.17 2698.81 1444.22 2697.22 1444.81 2696.34 1444.57 2695.17 1443.68 2694.59 1442.8 2694.01 1441.63 2694.25 1441.05 2695.13 1439.62 2697.37 1438.71 2699.97 1438.62 2702.64 1438.48 2705.23 1438.78 2707.46 1439.36 2709.42 1436.14 2710.07 1433.52 2711.59 1431.57 2713.69 1430.22 2712.29 1428.36 2710.96 1426.17 2709.83 1423.81 2708.57 1421.07 2707.97 1418.45 2708.17 1417.4 2708.23 1416.6 2709.13 1416.67 2710.18 1416.73 2711.24 1417.8 2712.15 1418.81 2712Z" fill="#37BD04"/><path d="M1492.82 2733.57 1477.37 2729.5C1476.9 2729.44 1476.4 2729.52 1475.86 2729.72L1469.23 2733.55C1468.31 2732.33 1467.26 2731.08 1466.17 2729.96L1472.17 2724.65C1472.97 2723.96 1473.28 2722.8 1473.06 2721.84L1468.55 2704.58C1468.12 2703.08 1466.63 2702.19 1465.08 2702.54 1463.58 2702.97 1462.7 2704.46 1463.05 2706.01L1467.11 2721.56 1462.12 2725.97C1460.92 2725.02 1459.87 2724.32 1458.91 2724L1434.19 2738.27C1433.99 2739.26 1433.99 2740.57 1434.33 2742.12L1426.87 2744.68 1416.26 2733.12C1415.18 2732 1413.4 2731.94 1412.23 2732.94 1411.11 2734.02 1411.04 2735.8 1412.05 2736.97L1423.92 2749.98C1424.73 2750.82 1425.9 2751.13 1426.97 2750.73L1435.68 2747.67C1436.19 2749.12 1436.7 2750.57 1437.17 2751.94L1431.03 2755.49C1430.67 2755.8 1430.35 2756.2 1430.08 2756.69L1425.88 2772.1C1425.29 2773.53 1425.94 2775.23 1427.38 2775.82 1428.81 2776.41 1430.51 2775.76 1431.1 2774.33L1435.09 2759.69 1439.43 2757.18C1439.77 2757.97 1440.15 2758.62 1440.44 2759.11 1441.19 2760.42 1442.11 2761.64 1443.15 2762.68L1437.87 2767.91C1437.15 2768.54 1436.9 2769.45 1437.05 2770.46L1439.97 2787.43C1440.24 2789.03 1441.7 2790.04 1443.24 2789.69 1443.53 2789.63 1443.91 2789.53 1444.16 2789.39 1445.14 2788.82 1445.74 2787.6 1445.5 2786.42L1442.75 2770.88 1447.6 2766.22C1452.46 2768.98 1458.39 2769.6 1463.81 2767.46 1464.21 2766.46 1464.18 2765.27 1463.62 2764.29L1454.54 2748.57C1454.02 2747.67 1454.38 2746.59 1455.2 2746.12 1456.1 2745.6 1457.18 2745.96 1457.65 2746.78L1466.77 2762.58C1467.34 2763.56 1468.35 2764.18 1469.34 2764.37 1473.78 2760.72 1476.2 2755.28 1476.2 2749.6L1483.24 2747.61 1495.33 2757.77C1496.22 2758.57 1497.58 2758.65 1498.56 2758.09 1498.81 2757.95 1499.09 2757.68 1499.29 2757.45 1500.32 2756.2 1500.17 2754.43 1498.97 2753.49L1485.68 2742.39C1485.01 2741.79 1484.02 2741.59 1483.06 2741.82L1475.36 2743.98C1474.89 2742.61 1474.35 2741.29 1473.64 2740.06 1473.31 2739.48 1472.93 2738.83 1472.47 2738.22L1477.38 2735.39 1492.02 2739.38C1493.56 2739.58 1494.97 2738.44 1495.18 2736.9 1495.5 2735.19 1494.36 2733.78 1492.82 2733.57Z" fill="#37BD04"/></g></g></g></g></svg>