<svg width="330" height="330" xmlns="http://www.w3.org/2000/svg" xmlns:xlink="http://www.w3.org/1999/xlink" overflow="hidden"><defs><clipPath id="clip0"><rect x="1851" y="1301" width="330" height="330"/></clipPath><clipPath id="clip1"><path d="M2007.39 1491.76 2085.99 1446.39 2131.36 1524.99 2052.76 1570.36Z" fill-rule="evenodd" clip-rule="evenodd"/></clipPath><clipPath id="clip2"><path d="M2007.39 1491.76 2085.99 1446.39 2131.36 1524.99 2052.76 1570.36Z" fill-rule="evenodd" clip-rule="evenodd"/></clipPath><clipPath id="clip3"><path d="M2007.39 1491.76 2085.99 1446.39 2131.36 1524.99 2052.76 1570.36Z" fill-rule="evenodd" clip-rule="evenodd"/></clipPath></defs><g clip-path="url(#clip0)" transform="translate(-1851 -1301)"><path d="M2122.56 1421.31C2124.46 1421.31 2126 1419.77 2126 1417.88L2126 1400.69C2126 1399.34 2125.21 1398.11 2123.99 1397.56L2048.36 1363.18C2047.91 1362.98 2047.43 1362.87 2046.94 1362.88L2045.07 1362.88 2043.48 1348.74C2043.41 1348.17 2043.21 1347.63 2042.88 1347.16L2018.82 1312.78C2017.73 1311.23 2015.58 1310.85 2014.03 1311.94 2013.7 1312.17 2013.41 1312.45 2013.18 1312.78L1989.12 1347.16C1988.79 1347.63 1988.59 1348.17 1988.52 1348.74L1986.93 1362.88 1985.06 1362.88C1984.57 1362.87 1984.09 1362.98 1983.64 1363.18L1908.01 1397.56C1906.79 1398.12 1906 1399.34 1906 1400.69L1906 1417.88C1906 1419.77 1907.54 1421.31 1909.44 1421.31 1911.34 1421.31 1912.88 1419.77 1912.88 1417.88L1912.88 1404.13 1982.31 1404.13 1978.12 1441.32 1908.01 1473.18C1906.79 1473.74 1906 1474.97 1906 1476.31L1906 1493.5C1906 1495.4 1907.54 1496.94 1909.44 1496.94 1911.34 1496.94 1912.88 1495.4 1912.88 1493.5L1912.88 1479.75 1973.8 1479.75 1971.4 1501.24 1925.76 1615.43C1925.05 1617.19 1925.91 1619.19 1927.67 1619.9 1928.08 1620.06 1928.51 1620.14 1928.95 1620.14 1929.41 1620.14 1929.87 1620.05 1930.29 1619.87L2015.82 1583.4 2101.84 1620.12C2103.59 1620.86 2105.61 1620.05 2106.36 1618.3 2106.71 1617.47 2106.72 1616.52 2106.39 1615.68L2060.61 1501.24 2058.2 1479.75 2119.12 1479.75 2119.12 1493.5C2119.12 1495.4 2120.66 1496.94 2122.56 1496.94 2124.46 1496.94 2126 1495.4 2126 1493.5L2126 1476.31C2126 1474.97 2125.21 1473.74 2123.99 1473.18L2053.88 1441.32 2049.69 1404.13 2119.12 1404.13 2119.12 1417.88C2119.12 1419.77 2120.66 1421.31 2122.56 1421.31ZM1995.25 1350.38 2015.97 1320.79C2015.98 1320.77 2016 1320.77 2016.01 1320.77 2016.02 1320.78 2016.02 1320.78 2016.03 1320.79L2036.75 1350.38 2038.15 1362.88 1993.85 1362.88ZM2038.92 1369.75 2042.02 1397.25 1989.99 1397.25 1993.08 1369.75ZM1925.46 1397.25C1925.38 1397.25 1925.37 1397.22 1925.46 1397.18L1985.81 1369.75 1986.15 1369.75 1983.06 1397.25ZM1925.46 1472.81 1977.23 1449.28 1974.57 1472.88 1925.46 1472.88C1925.38 1472.88 1925.37 1472.84 1925.45 1472.81ZM1984.53 1445.96 1985.81 1445.38 2046.19 1445.38 2047.48 1445.96 2050.51 1472.88 1981.49 1472.88ZM2056.03 1508.26 2069.96 1543.09 2024.24 1522.54ZM2071 1551.1C2071.7 1551.42 2072.48 1551.49 2073.22 1551.28L2073.32 1551.53C2073.14 1551.55 2072.96 1551.59 2072.78 1551.64L2015.82 1575.93 1958.91 1551.64C1958.83 1551.62 1958.75 1551.6 1958.67 1551.59L1958.78 1551.33C1958.94 1551.37 1959.11 1551.39 1959.28 1551.4 1959.77 1551.4 1960.25 1551.3 1960.69 1551.1L2015.85 1526.31ZM1962.14 1542.91 1975.94 1508.38 2007.46 1522.54ZM1935.28 1610.27C1935.24 1610.27 1935.22 1610.27 1935.24 1610.22L1956.14 1557.92C1956.17 1557.92 1956.19 1557.95 1956.21 1557.96L2007.06 1579.66ZM2024.58 1579.67 2075.47 1557.96C2075.59 1557.89 2075.7 1557.82 2075.81 1557.74L2096.91 1610.46C2096.91 1610.51 2096.91 1610.53 2096.86 1610.51ZM2053.75 1501.75 2015.85 1518.77 1978.24 1501.87 1980.72 1479.75 2051.28 1479.75ZM2106.54 1472.88 2057.43 1472.88 2054.78 1449.28 2106.55 1472.81C2106.63 1472.84 2106.62 1472.88 2106.54 1472.88ZM2046.65 1438.5 1985.35 1438.5 1989.22 1404.13 2042.78 1404.13ZM2045.84 1369.75 2046.18 1369.75 2106.54 1397.18C2106.62 1397.22 2106.61 1397.25 2106.54 1397.25L2048.93 1397.25Z" fill="#FFFFFF"/><g clip-path="url(#clip1)"><g clip-path="url(#clip2)"><g clip-path="url(#clip3)"><path d="M2037.56 1482.75C2039.54 1482.59 2041.56 1483.06 2043.31 1484.02 2045.32 1485.04 2046.92 1486.3 2048.19 1487.75 2046.15 1491.77 2046.14 1496.68 2048.55 1500.86 2049.36 1502.25 2050.36 1503.42 2051.52 1504.49L2074.12 1491.45C2073.38 1487.51 2070.99 1483.76 2066.14 1481.21 2064.87 1480.52 2063.45 1480.14 2062.04 1479.97 2061.38 1478.06 2061.12 1475.92 2061.19 1473.59 2061.32 1471.55 2061.92 1469.56 2062.97 1467.97 2063.56 1467.09 2063.32 1465.92 2062.43 1465.34 2061.55 1464.76 2060.38 1465 2059.8 1465.88 2058.37 1468.12 2057.46 1470.72 2057.37 1473.39 2057.23 1475.98 2057.53 1478.21 2058.11 1480.17 2054.89 1480.82 2052.27 1482.34 2050.32 1484.44 2048.97 1483.04 2047.11 1481.71 2044.92 1480.58 2042.56 1479.32 2039.82 1478.72 2037.2 1478.92 2036.15 1478.98 2035.35 1479.88 2035.42 1480.93 2035.48 1481.99 2036.55 1482.9 2037.56 1482.75Z" fill="#37BD04"/><path d="M2111.57 1504.32 2096.12 1500.25C2095.65 1500.19 2095.15 1500.27 2094.61 1500.47L2087.98 1504.3C2087.06 1503.08 2086.01 1501.83 2084.92 1500.71L2090.92 1495.4C2091.72 1494.71 2092.03 1493.55 2091.81 1492.59L2087.3 1475.33C2086.87 1473.83 2085.38 1472.94 2083.83 1473.29 2082.33 1473.72 2081.45 1475.21 2081.79 1476.76L2085.86 1492.31 2080.87 1496.72C2079.67 1495.77 2078.62 1495.07 2077.66 1494.75L2052.94 1509.02C2052.74 1510.01 2052.74 1511.32 2053.08 1512.87L2045.62 1515.43 2035.01 1503.87C2033.93 1502.75 2032.15 1502.69 2030.98 1503.69 2029.86 1504.77 2029.79 1506.55 2030.8 1507.72L2042.67 1520.73C2043.48 1521.57 2044.65 1521.88 2045.72 1521.48L2054.43 1518.42C2054.94 1519.87 2055.45 1521.32 2055.92 1522.69L2049.78 1526.24C2049.42 1526.55 2049.1 1526.95 2048.83 1527.44L2044.63 1542.85C2044.04 1544.28 2044.69 1545.98 2046.13 1546.57 2047.56 1547.16 2049.26 1546.51 2049.85 1545.08L2053.84 1530.44 2058.18 1527.93C2058.52 1528.72 2058.9 1529.37 2059.19 1529.86 2059.94 1531.17 2060.86 1532.39 2061.9 1533.43L2056.62 1538.66C2055.9 1539.29 2055.65 1540.2 2055.8 1541.21L2058.72 1558.18C2058.99 1559.78 2060.45 1560.79 2061.99 1560.44 2062.28 1560.38 2062.66 1560.28 2062.91 1560.14 2063.89 1559.57 2064.49 1558.35 2064.25 1557.17L2061.5 1541.63 2066.35 1536.97C2071.21 1539.73 2077.14 1540.35 2082.56 1538.21 2082.96 1537.21 2082.93 1536.02 2082.37 1535.04L2073.29 1519.32C2072.77 1518.42 2073.13 1517.34 2073.95 1516.87 2074.85 1516.35 2075.93 1516.71 2076.4 1517.53L2085.52 1533.33C2086.09 1534.31 2087.1 1534.93 2088.09 1535.12 2092.53 1531.47 2094.95 1526.03 2094.95 1520.35L2101.99 1518.36 2114.08 1528.52C2114.97 1529.32 2116.33 1529.4 2117.31 1528.84 2117.56 1528.7 2117.84 1528.43 2118.04 1528.2 2119.07 1526.95 2118.92 1525.18 2117.72 1524.24L2104.43 1513.14C2103.76 1512.54 2102.77 1512.35 2101.81 1512.57L2094.11 1514.73C2093.64 1513.36 2093.1 1512.04 2092.39 1510.81 2092.06 1510.23 2091.68 1509.58 2091.22 1508.97L2096.13 1506.14 2110.77 1510.13C2112.31 1510.33 2113.72 1509.19 2113.93 1507.65 2114.25 1505.94 2113.11 1504.53 2111.57 1504.32Z" fill="#37BD04"/></g></g></g></g></svg>