<svg width="96" height="96" xmlns="http://www.w3.org/2000/svg" xmlns:xlink="http://www.w3.org/1999/xlink" overflow="hidden"><defs><clipPath id="clip0"><rect x="0" y="0" width="96" height="96"/></clipPath></defs><g clip-path="url(#clip0)"><path d="M52.634 36.134 48.938 38.268 48.938 34 46.938 34 46.938 38.268 43.242 36.134 42.242 37.866 45.937 40 42.242 42.134 43.242 43.866 46.938 41.732 46.938 46 48.938 46 48.938 41.732 52.634 43.866 53.634 42.134 49.938 40 53.634 37.866 52.634 36.134Z" fill="#FFFFFF"/><path d="M58 68.001 62 68.001 62 72 58 72Z" fill="#FFFFFF"/><path d="M58 61 62 61 62 64.999 58 64.999Z" fill="#FFFFFF"/><path d="M67 68 71 68 71 71.999 67 71.999Z" fill="#FFFFFF"/><path d="M67 61.001 71 61.001 71 65 67 65Z" fill="#FFFFFF"/><path d="M58 54 62 54 62 57.999 58 57.999Z" fill="#FFFFFF"/><path d="M67 54 71 54 71 57.999 67 57.999Z" fill="#FFFFFF"/><path d="M76 68 80 68 80 71.999 76 71.999Z" fill="#FFFFFF"/><path d="M76 61.001 80 61.001 80 65 76 65Z" fill="#FFFFFF"/><path d="M76 54 80 54 80 57.999 76 57.999Z" fill="#FFFFFF"/><path d="M58 47.001 62 47.001 62 51 58 51Z" fill="#FFFFFF"/><path d="M67 47 71 47 71 50.999 67 50.999Z" fill="#FFFFFF"/><path d="M76 47 80 47 80 50.999 76 50.999Z" fill="#FFFFFF"/><path d="M16 68.001 20 68.001 20 72 16 72Z" fill="#FFFFFF"/><path d="M16 61 20 61 20 64.999 16 64.999Z" fill="#FFFFFF"/><path d="M25 68 29 68 29 71.999 25 71.999Z" fill="#FFFFFF"/><path d="M25 61.001 29 61.001 29 65 25 65Z" fill="#FFFFFF"/><path d="M16 54 20 54 20 57.999 16 57.999Z" fill="#FFFFFF"/><path d="M25 54 29 54 29 57.999 25 57.999Z" fill="#FFFFFF"/><path d="M34 68 38 68 38 71.999 34 71.999Z" fill="#FFFFFF"/><path d="M34 61.001 38 61.001 38 65 34 65Z" fill="#FFFFFF"/><path d="M34 54 38 54 38 57.999 34 57.999Z" fill="#FFFFFF"/><path d="M16 47.001 20 47.001 20 51 16 51Z" fill="#FFFFFF"/><path d="M25 47 29 47 29 50.999 25 50.999Z" fill="#FFFFFF"/><path d="M34 47 38 47 38 50.999 34 50.999Z" fill="#FFFFFF"/><path d="M87 39 61 39 61 35.332 61.416 35.749 66.626 30.486 48 12.616 28.968 30.791 34.274 36.063 35 35.336 35 39 7 39 7 41 9 41 9 80 87 80 87 41 89 41 89 39ZM34.269 33.238 31.834 30.819 48 15.384 63.777 30.523 61.412 32.913 61 32.5 61 32.5 48 19.5 35 32.5 35 32.509ZM45 78 45 66 51 66 51 78ZM85 78 53 78 53 64 43 64 43 78 11 78 11 41 37 41 37 33.335 38.341 31.994 38.341 31.994 48 22.322 56.78 31.104 56.78 31.104 59 33.333 59 41 85 41Z" fill="#FFFFFF"/></g></svg>