<svg width="363" height="330" xmlns="http://www.w3.org/2000/svg" xmlns:xlink="http://www.w3.org/1999/xlink" overflow="hidden"><defs><clipPath id="clip0"><rect x="2016" y="1686" width="363" height="330"/></clipPath><clipPath id="clip1"><rect x="2016" y="1686" width="331" height="331"/></clipPath><clipPath id="clip2"><rect x="2016" y="1686" width="331" height="331"/></clipPath><clipPath id="clip3"><rect x="2016" y="1686" width="331" height="331"/></clipPath><clipPath id="clip4"><path d="M2254.89 1871.26 2333.49 1825.89 2378.86 1904.49 2300.26 1949.86Z" fill-rule="evenodd" clip-rule="evenodd"/></clipPath><clipPath id="clip5"><path d="M2254.89 1871.26 2333.49 1825.89 2378.86 1904.49 2300.26 1949.86Z" fill-rule="evenodd" clip-rule="evenodd"/></clipPath><clipPath id="clip6"><path d="M2254.89 1871.26 2333.49 1825.89 2378.86 1904.49 2300.26 1949.86Z" fill-rule="evenodd" clip-rule="evenodd"/></clipPath></defs><g clip-path="url(#clip0)" transform="translate(-2016 -1686)"><g clip-path="url(#clip1)"><g clip-path="url(#clip2)"><g clip-path="url(#clip3)"><path d="M2196.93 1810.21 2184.22 1817.55 2184.22 1802.88 2177.35 1802.88 2177.35 1817.55 2164.64 1810.21 2161.21 1816.16 2173.91 1823.5 2161.21 1830.84 2164.64 1836.79 2177.35 1829.45 2177.35 1844.13 2184.22 1844.13 2184.22 1829.45 2196.93 1836.79 2200.37 1830.84 2187.66 1823.5 2200.37 1816.16 2196.93 1810.21Z" fill="#FFFFFF"/><path d="M2215.38 1919.75 2229.12 1919.75 2229.12 1933.5 2215.38 1933.5Z" fill="#FFFFFF"/><path d="M2215.38 1895.69 2229.12 1895.69 2229.12 1909.43 2215.38 1909.43Z" fill="#FFFFFF"/><path d="M2246.31 1919.75 2260.06 1919.75 2260.06 1933.5 2246.31 1933.5Z" fill="#FFFFFF"/><path d="M2246.31 1895.69 2260.06 1895.69 2260.06 1909.44 2246.31 1909.44Z" fill="#FFFFFF"/><path d="M2215.38 1871.63 2229.12 1871.63 2229.12 1885.37 2215.38 1885.37Z" fill="#FFFFFF"/><path d="M2246.31 1871.63 2260.06 1871.63 2260.06 1885.37 2246.31 1885.37Z" fill="#FFFFFF"/><path d="M2277.25 1919.75 2291 1919.75 2291 1933.5 2277.25 1933.5Z" fill="#FFFFFF"/><path d="M2277.25 1895.69 2291 1895.69 2291 1909.44 2277.25 1909.44Z" fill="#FFFFFF"/><path d="M2277.25 1871.63 2291 1871.63 2291 1885.37 2277.25 1885.37Z" fill="#FFFFFF"/><path d="M2215.38 1847.57 2229.12 1847.57 2229.12 1861.31 2215.38 1861.31Z" fill="#FFFFFF"/><path d="M2246.31 1847.56 2260.06 1847.56 2260.06 1861.31 2246.31 1861.31Z" fill="#FFFFFF"/><path d="M2277.25 1847.56 2291 1847.56 2291 1861.31 2277.25 1861.31Z" fill="#FFFFFF"/><path d="M2071 1919.75 2084.75 1919.75 2084.75 1933.5 2071 1933.5Z" fill="#FFFFFF"/><path d="M2071 1895.69 2084.75 1895.69 2084.75 1909.43 2071 1909.43Z" fill="#FFFFFF"/><path d="M2101.94 1919.75 2115.69 1919.75 2115.69 1933.5 2101.94 1933.5Z" fill="#FFFFFF"/><path d="M2101.94 1895.69 2115.69 1895.69 2115.69 1909.44 2101.94 1909.44Z" fill="#FFFFFF"/><path d="M2071 1871.63 2084.75 1871.63 2084.75 1885.37 2071 1885.37Z" fill="#FFFFFF"/><path d="M2101.94 1871.63 2115.69 1871.63 2115.69 1885.37 2101.94 1885.37Z" fill="#FFFFFF"/><path d="M2132.88 1919.75 2146.62 1919.75 2146.62 1933.5 2132.88 1933.5Z" fill="#FFFFFF"/><path d="M2132.88 1895.69 2146.62 1895.69 2146.62 1909.44 2132.88 1909.44Z" fill="#FFFFFF"/><path d="M2132.88 1871.63 2146.62 1871.63 2146.62 1885.37 2132.88 1885.37Z" fill="#FFFFFF"/><path d="M2071 1847.57 2084.75 1847.57 2084.75 1861.31 2071 1861.31Z" fill="#FFFFFF"/><path d="M2101.94 1847.56 2115.69 1847.56 2115.69 1861.31 2101.94 1861.31Z" fill="#FFFFFF"/><path d="M2132.88 1847.56 2146.62 1847.56 2146.62 1861.31 2132.88 1861.31Z" fill="#FFFFFF"/><path d="M2315.06 1820.06 2225.69 1820.06 2225.69 1807.45 2227.12 1808.89 2245.03 1790.8 2181 1729.37 2115.58 1791.84 2133.82 1809.97 2136.31 1807.47 2136.31 1820.06 2040.06 1820.06 2040.06 1826.94 2046.94 1826.94 2046.94 1961 2315.06 1961 2315.06 1826.94 2321.94 1826.94 2321.94 1820.06ZM2133.8 1800.26 2125.43 1791.94 2181 1738.88 2235.23 1790.92 2227.1 1799.14 2225.69 1797.72 2225.69 1797.72 2181 1753.03 2136.31 1797.72 2136.31 1797.75ZM2170.69 1954.13 2170.69 1912.88 2191.31 1912.88 2191.31 1954.13ZM2308.19 1954.13 2198.19 1954.13 2198.19 1906 2163.81 1906 2163.81 1954.13 2053.81 1954.13 2053.81 1826.94 2143.19 1826.94 2143.19 1800.59 2147.8 1795.98 2147.8 1795.98 2181 1762.73 2211.18 1792.92 2211.18 1792.92 2218.81 1800.58 2218.81 1826.94 2308.19 1826.94Z" fill="#FFFFFF"/></g></g></g><g clip-path="url(#clip4)"><g clip-path="url(#clip5)"><g clip-path="url(#clip6)"><path d="M2285.06 1862.25C2287.04 1862.09 2289.06 1862.56 2290.81 1863.52 2292.82 1864.54 2294.42 1865.8 2295.69 1867.25 2293.65 1871.27 2293.64 1876.18 2296.05 1880.36 2296.86 1881.75 2297.86 1882.92 2299.02 1883.99L2321.62 1870.95C2320.88 1867.01 2318.49 1863.26 2313.64 1860.71 2312.37 1860.02 2310.95 1859.64 2309.54 1859.47 2308.88 1857.56 2308.62 1855.42 2308.69 1853.09 2308.82 1851.05 2309.42 1849.06 2310.47 1847.47 2311.06 1846.59 2310.82 1845.42 2309.93 1844.84 2309.05 1844.26 2307.88 1844.5 2307.3 1845.38 2305.87 1847.62 2304.96 1850.22 2304.87 1852.89 2304.73 1855.48 2305.03 1857.71 2305.61 1859.67 2302.39 1860.32 2299.77 1861.84 2297.82 1863.94 2296.47 1862.54 2294.61 1861.21 2292.42 1860.08 2290.06 1858.82 2287.32 1858.22 2284.7 1858.42 2283.65 1858.48 2282.85 1859.38 2282.92 1860.43 2282.98 1861.49 2284.05 1862.4 2285.06 1862.25Z" fill="#37BD04"/><path d="M2359.07 1883.82 2343.62 1879.75C2343.15 1879.69 2342.65 1879.77 2342.11 1879.97L2335.48 1883.8C2334.56 1882.58 2333.51 1881.33 2332.42 1880.21L2338.42 1874.9C2339.22 1874.21 2339.53 1873.05 2339.31 1872.09L2334.8 1854.83C2334.37 1853.33 2332.88 1852.44 2331.33 1852.79 2329.83 1853.22 2328.95 1854.71 2329.3 1856.26L2333.36 1871.81 2328.37 1876.22C2327.17 1875.27 2326.12 1874.57 2325.16 1874.25L2300.44 1888.52C2300.24 1889.51 2300.24 1890.82 2300.58 1892.37L2293.12 1894.93 2282.51 1883.37C2281.43 1882.25 2279.65 1882.19 2278.48 1883.19 2277.36 1884.27 2277.29 1886.05 2278.3 1887.22L2290.17 1900.23C2290.98 1901.07 2292.15 1901.38 2293.22 1900.98L2301.93 1897.92C2302.44 1899.37 2302.96 1900.82 2303.42 1902.19L2297.28 1905.74C2296.92 1906.05 2296.6 1906.45 2296.33 1906.94L2292.13 1922.35C2291.54 1923.78 2292.19 1925.48 2293.63 1926.07 2295.06 1926.66 2296.76 1926.01 2297.35 1924.58L2301.34 1909.94 2305.68 1907.43C2306.02 1908.22 2306.4 1908.87 2306.69 1909.36 2307.44 1910.67 2308.36 1911.89 2309.4 1912.93L2304.12 1918.16C2303.4 1918.79 2303.15 1919.7 2303.3 1920.71L2306.22 1937.68C2306.49 1939.28 2307.95 1940.29 2309.49 1939.94 2309.79 1939.88 2310.16 1939.78 2310.41 1939.64 2311.39 1939.07 2311.99 1937.85 2311.75 1936.67L2309 1921.13 2313.85 1916.47C2318.71 1919.23 2324.64 1919.85 2330.06 1917.71 2330.46 1916.71 2330.43 1915.52 2329.87 1914.54L2320.79 1898.82C2320.27 1897.92 2320.63 1896.84 2321.45 1896.37 2322.35 1895.85 2323.43 1896.21 2323.9 1897.03L2333.02 1912.83C2333.59 1913.81 2334.6 1914.43 2335.59 1914.62 2340.03 1910.97 2342.45 1905.53 2342.45 1899.85L2349.49 1897.86 2361.58 1908.02C2362.47 1908.82 2363.83 1908.9 2364.81 1908.34 2365.06 1908.2 2365.34 1907.93 2365.54 1907.7 2366.57 1906.45 2366.42 1904.68 2365.22 1903.74L2351.93 1892.64C2351.26 1892.04 2350.27 1891.85 2349.31 1892.07L2341.61 1894.23C2341.14 1892.86 2340.6 1891.54 2339.89 1890.31 2339.56 1889.73 2339.18 1889.08 2338.72 1888.47L2343.63 1885.64 2358.27 1889.63C2359.81 1889.83 2361.22 1888.69 2361.43 1887.15 2361.75 1885.44 2360.61 1884.03 2359.07 1883.82Z" fill="#37BD04"/></g></g></g></g></svg>