<svg width="339" height="330" xmlns="http://www.w3.org/2000/svg" xmlns:xlink="http://www.w3.org/1999/xlink" overflow="hidden"><defs><clipPath id="clip0"><rect x="1408" y="2137" width="339" height="330"/></clipPath><clipPath id="clip1"><rect x="1408" y="2137" width="330" height="331"/></clipPath><clipPath id="clip2"><rect x="1408" y="2137" width="330" height="331"/></clipPath><clipPath id="clip3"><rect x="1408" y="2137" width="330" height="331"/></clipPath><clipPath id="clip4"><path d="M1622.39 2327.76 1700.99 2282.39 1746.36 2360.99 1667.76 2406.36Z" fill-rule="evenodd" clip-rule="evenodd"/></clipPath><clipPath id="clip5"><path d="M1622.39 2327.76 1700.99 2282.39 1746.36 2360.99 1667.76 2406.36Z" fill-rule="evenodd" clip-rule="evenodd"/></clipPath><clipPath id="clip6"><path d="M1622.39 2327.76 1700.99 2282.39 1746.36 2360.99 1667.76 2406.36Z" fill-rule="evenodd" clip-rule="evenodd"/></clipPath></defs><g clip-path="url(#clip0)" transform="translate(-1408 -2137)"><g clip-path="url(#clip1)"><g clip-path="url(#clip2)"><g clip-path="url(#clip3)"><path d="M1526.84 2300.04 1531.7 2295.18C1508.89 2272.42 1508.85 2235.48 1531.6 2212.67 1531.63 2212.64 1531.67 2212.61 1531.7 2212.57L1526.84 2207.71C1501.34 2233.15 1501.3 2274.44 1526.74 2299.94 1526.77 2299.97 1526.8 2300 1526.84 2300.04Z" fill="#FFFFFF"/><path d="M1599.73 2280.6C1614.49 2265.87 1614.51 2241.96 1599.78 2227.2 1599.76 2227.18 1599.74 2227.17 1599.73 2227.15L1594.87 2232.01C1606.94 2244.06 1606.96 2263.62 1594.91 2275.69 1594.9 2275.71 1594.88 2275.73 1594.87 2275.74Z" fill="#FFFFFF"/><path d="M1551.13 2275.74C1539.06 2263.69 1539.04 2244.13 1551.09 2232.06 1551.1 2232.04 1551.12 2232.02 1551.13 2232.01L1546.27 2227.15C1531.51 2241.88 1531.49 2265.79 1546.22 2280.55 1546.24 2280.57 1546.26 2280.58 1546.27 2280.6Z" fill="#FFFFFF"/><path d="M1633.74 2314.61 1638.6 2319.47C1674.83 2283.33 1674.89 2224.65 1638.75 2188.43 1638.7 2188.38 1638.65 2188.33 1638.6 2188.28L1633.74 2193.14C1667.28 2226.6 1667.35 2280.92 1633.88 2314.47 1633.83 2314.52 1633.79 2314.56 1633.74 2314.61Z" fill="#FFFFFF"/><path d="M1512.26 2314.61C1478.72 2281.15 1478.65 2226.83 1512.12 2193.28 1512.17 2193.23 1512.21 2193.19 1512.26 2193.14L1507.4 2188.28C1471.17 2224.42 1471.11 2283.1 1507.25 2319.32 1507.3 2319.37 1507.35 2319.42 1507.4 2319.47Z" fill="#FFFFFF"/><path d="M1619.16 2300.04C1644.66 2274.6 1644.7 2233.31 1619.26 2207.81 1619.23 2207.78 1619.2 2207.75 1619.16 2207.71L1614.3 2212.57C1637.11 2235.33 1637.15 2272.27 1614.4 2295.08 1614.37 2295.11 1614.33 2295.14 1614.3 2295.18Z" fill="#FFFFFF"/><path d="M1672.69 2350.12 1576.44 2350.12 1576.44 2263.55C1581.81 2261.66 1584.62 2255.76 1582.72 2250.39 1580.82 2245.03 1574.93 2242.21 1569.56 2244.11 1564.19 2246.01 1561.38 2251.9 1563.28 2257.27 1564.32 2260.21 1566.63 2262.52 1569.56 2263.55L1569.56 2350.12 1473.31 2350.12C1463.82 2350.14 1456.14 2357.82 1456.12 2367.31L1456.12 2401.69C1456.14 2411.18 1463.82 2418.86 1473.31 2418.88L1672.69 2418.88C1682.18 2418.86 1689.86 2411.18 1689.88 2401.69L1689.88 2367.31C1689.86 2357.82 1682.18 2350.14 1672.69 2350.12ZM1683 2401.69C1683 2407.38 1678.38 2412 1672.69 2412L1473.31 2412C1467.62 2412 1463 2407.38 1463 2401.69L1463 2367.31C1463 2361.62 1467.62 2357 1473.31 2357L1672.69 2357C1678.38 2357 1683 2361.62 1683 2367.31Z" fill="#FFFFFF"/><path d="M1504.25 2384.5C1504.25 2390.2 1499.63 2394.81 1493.94 2394.81 1488.24 2394.81 1483.62 2390.2 1483.62 2384.5 1483.62 2378.8 1488.24 2374.19 1493.94 2374.19 1499.63 2374.19 1504.25 2378.8 1504.25 2384.5Z" fill="#FFFFFF"/><path d="M1555.81 2384.5C1555.81 2388.3 1552.73 2391.38 1548.94 2391.38 1545.14 2391.38 1542.06 2388.3 1542.06 2384.5 1542.06 2380.7 1545.14 2377.62 1548.94 2377.62 1552.73 2377.62 1555.81 2380.7 1555.81 2384.5Z" fill="#FFFFFF"/><path d="M1590.19 2384.5C1590.19 2388.3 1587.11 2391.38 1583.31 2391.38 1579.52 2391.38 1576.44 2388.3 1576.44 2384.5 1576.44 2380.7 1579.52 2377.62 1583.31 2377.62 1587.11 2377.62 1590.19 2380.7 1590.19 2384.5Z" fill="#FFFFFF"/><path d="M1624.56 2384.5C1624.56 2388.3 1621.48 2391.38 1617.69 2391.38 1613.89 2391.38 1610.81 2388.3 1610.81 2384.5 1610.81 2380.7 1613.89 2377.62 1617.69 2377.62 1621.48 2377.62 1624.56 2380.7 1624.56 2384.5Z" fill="#FFFFFF"/><path d="M1658.94 2384.5C1658.94 2388.3 1655.86 2391.38 1652.06 2391.38 1648.27 2391.38 1645.19 2388.3 1645.19 2384.5 1645.19 2380.7 1648.27 2377.62 1652.06 2377.62 1655.86 2377.62 1658.94 2380.7 1658.94 2384.5Z" fill="#FFFFFF"/></g></g></g><g clip-path="url(#clip4)"><g clip-path="url(#clip5)"><g clip-path="url(#clip6)"><path d="M1652.56 2318.75C1654.54 2318.59 1656.56 2319.06 1658.31 2320.02 1660.32 2321.04 1661.92 2322.3 1663.19 2323.75 1661.15 2327.77 1661.14 2332.68 1663.55 2336.86 1664.36 2338.25 1665.36 2339.42 1666.52 2340.49L1689.12 2327.45C1688.38 2323.51 1685.99 2319.76 1681.14 2317.21 1679.87 2316.52 1678.45 2316.14 1677.04 2315.97 1676.38 2314.06 1676.12 2311.92 1676.19 2309.59 1676.32 2307.55 1676.92 2305.56 1677.97 2303.97 1678.56 2303.09 1678.32 2301.92 1677.43 2301.34 1676.55 2300.76 1675.38 2301 1674.8 2301.88 1673.37 2304.12 1672.46 2306.72 1672.37 2309.39 1672.23 2311.98 1672.53 2314.21 1673.11 2316.17 1669.89 2316.82 1667.27 2318.34 1665.32 2320.44 1663.97 2319.04 1662.11 2317.71 1659.92 2316.58 1657.56 2315.32 1654.82 2314.72 1652.2 2314.92 1651.15 2314.98 1650.35 2315.88 1650.42 2316.93 1650.48 2317.99 1651.55 2318.9 1652.56 2318.75Z" fill="#37BD04"/><path d="M1726.57 2340.32 1711.12 2336.25C1710.65 2336.19 1710.15 2336.27 1709.61 2336.47L1702.98 2340.3C1702.06 2339.08 1701.01 2337.83 1699.92 2336.71L1705.92 2331.4C1706.72 2330.71 1707.03 2329.55 1706.81 2328.59L1702.3 2311.33C1701.87 2309.83 1700.38 2308.94 1698.83 2309.29 1697.33 2309.72 1696.45 2311.21 1696.8 2312.76L1700.86 2328.31 1695.87 2332.72C1694.67 2331.77 1693.62 2331.07 1692.66 2330.75L1667.94 2345.02C1667.74 2346.01 1667.74 2347.32 1668.08 2348.87L1660.62 2351.43 1650.01 2339.87C1648.93 2338.75 1647.15 2338.69 1645.98 2339.69 1644.86 2340.77 1644.79 2342.55 1645.8 2343.72L1657.67 2356.73C1658.48 2357.57 1659.65 2357.88 1660.72 2357.48L1669.43 2354.42C1669.94 2355.87 1670.45 2357.32 1670.92 2358.69L1664.78 2362.24C1664.42 2362.55 1664.1 2362.95 1663.83 2363.44L1659.63 2378.85C1659.04 2380.28 1659.69 2381.98 1661.13 2382.57 1662.56 2383.16 1664.26 2382.51 1664.85 2381.08L1668.84 2366.44 1673.18 2363.93C1673.52 2364.72 1673.9 2365.37 1674.19 2365.86 1674.94 2367.17 1675.86 2368.39 1676.9 2369.43L1671.62 2374.66C1670.9 2375.29 1670.65 2376.2 1670.8 2377.21L1673.72 2394.18C1673.99 2395.78 1675.45 2396.79 1676.99 2396.44 1677.28 2396.38 1677.66 2396.28 1677.91 2396.14 1678.89 2395.57 1679.49 2394.35 1679.25 2393.17L1676.5 2377.63 1681.35 2372.97C1686.21 2375.73 1692.14 2376.35 1697.56 2374.21 1697.96 2373.21 1697.93 2372.02 1697.37 2371.04L1688.29 2355.32C1687.77 2354.42 1688.13 2353.34 1688.95 2352.87 1689.85 2352.35 1690.93 2352.71 1691.4 2353.53L1700.52 2369.33C1701.09 2370.31 1702.1 2370.93 1703.09 2371.12 1707.53 2367.47 1709.95 2362.03 1709.95 2356.35L1716.99 2354.36 1729.08 2364.52C1729.97 2365.32 1731.33 2365.4 1732.31 2364.84 1732.56 2364.7 1732.84 2364.43 1733.04 2364.2 1734.07 2362.95 1733.92 2361.18 1732.72 2360.24L1719.43 2349.14C1718.76 2348.54 1717.77 2348.34 1716.81 2348.57L1709.11 2350.73C1708.64 2349.36 1708.1 2348.04 1707.39 2346.81 1707.06 2346.23 1706.68 2345.58 1706.22 2344.97L1711.13 2342.14 1725.77 2346.13C1727.31 2346.33 1728.72 2345.19 1728.93 2343.65 1729.25 2341.94 1728.11 2340.53 1726.57 2340.32Z" fill="#37BD04"/></g></g></g></g></svg>