<svg width="532" height="532" xmlns="http://www.w3.org/2000/svg" xmlns:xlink="http://www.w3.org/1999/xlink" overflow="hidden"><defs><clipPath id="clip0"><rect x="0" y="0" width="532" height="532"/></clipPath></defs><g clip-path="url(#clip0)"><path d="M277.083 383.483 277.083 412.854 254.917 412.854 254.917 383.483C242.171 379.05 232.75 366.858 232.75 351.896 232.75 333.608 247.712 318.646 266 318.646 284.287 318.646 299.25 333.608 299.25 351.896 299.25 366.304 289.829 378.496 277.083 383.483ZM182.875 180.104C182.875 134.108 220.004 96.9792 266 96.9792 311.996 96.9792 349.125 134.108 349.125 180.104L349.125 241.617 266 235.521 182.875 241.617 182.875 180.104ZM382.375 243.833 382.375 180.104C382.375 115.821 330.283 63.7292 266 63.7292 201.717 63.7292 149.625 115.821 149.625 180.104L149.625 243.833 110.833 246.604 110.833 457.188 266 468.271 421.167 457.188 421.167 246.604 382.375 243.833Z" fill="#FFFFFF"/></g></svg>