<svg width="347" height="330" xmlns="http://www.w3.org/2000/svg" xmlns:xlink="http://www.w3.org/1999/xlink" overflow="hidden"><defs><clipPath id="clip0"><rect x="1504" y="2547" width="347" height="330"/></clipPath><clipPath id="clip1"><rect x="1503" y="2546" width="331" height="331"/></clipPath><clipPath id="clip2"><rect x="1503" y="2546" width="331" height="331"/></clipPath><clipPath id="clip3"><rect x="1503" y="2546" width="331" height="331"/></clipPath><clipPath id="clip4"><path d="M1726.89 2743.01 1805.49 2697.64 1850.86 2776.24 1772.26 2821.61Z" fill-rule="evenodd" clip-rule="evenodd"/></clipPath><clipPath id="clip5"><path d="M1726.89 2743.01 1805.49 2697.64 1850.86 2776.24 1772.26 2821.61Z" fill-rule="evenodd" clip-rule="evenodd"/></clipPath><clipPath id="clip6"><path d="M1726.89 2743.01 1805.49 2697.64 1850.86 2776.24 1772.26 2821.61Z" fill-rule="evenodd" clip-rule="evenodd"/></clipPath></defs><g clip-path="url(#clip0)" transform="translate(-1504 -2547)"><g clip-path="url(#clip1)"><g clip-path="url(#clip2)"><g clip-path="url(#clip3)"><path d="M1802.25 2846.06C1792.89 2815.75 1779.28 2759.51 1787.45 2708.29 1787.86 2705.77 1787.15 2703.2 1785.5 2701.25 1783.88 2699.35 1781.5 2698.25 1779 2698.25L1737.75 2698.25 1737.75 2705.12 1779 2705.12C1779.49 2705.12 1779.95 2705.34 1780.26 2705.71 1780.61 2706.12 1780.76 2706.67 1780.66 2707.2 1772.81 2756.44 1783.82 2809.14 1795.06 2846.06L1759.66 2846.06C1752.62 2829.6 1719.14 2745.92 1731.19 2670.54 1731.61 2668.03 1730.9 2665.45 1729.25 2663.51 1727.63 2661.6 1725.25 2660.5 1722.75 2660.5L1615.88 2660.5C1613.38 2660.5 1611 2661.6 1609.38 2663.5 1607.73 2665.45 1607.02 2668.02 1607.43 2670.53 1619.45 2745.94 1585.97 2829.6 1578.93 2846.06L1542.94 2846.06C1554.17 2809.14 1565.19 2756.44 1557.34 2707.19 1557.24 2706.66 1557.39 2706.12 1557.74 2705.71 1558.05 2705.34 1558.51 2705.12 1559 2705.12L1600.25 2705.12 1600.25 2698.25 1559 2698.25C1556.5 2698.25 1554.12 2699.35 1552.5 2701.26 1550.85 2703.2 1550.14 2705.77 1550.55 2708.28 1558.72 2759.51 1545.11 2815.75 1535.75 2846.06L1514.31 2846.06 1514.31 2852.94 1823.69 2852.94 1823.69 2846.06ZM1586.39 2846.06C1595.48 2824.12 1625.96 2743.1 1614.22 2669.44 1614.13 2668.91 1614.27 2668.37 1614.62 2667.96 1614.93 2667.59 1615.4 2667.37 1615.88 2667.37L1722.75 2667.37C1723.23 2667.37 1723.7 2667.59 1724.01 2667.96 1724.36 2668.37 1724.5 2668.92 1724.41 2669.45 1712.63 2743.09 1743.12 2824.12 1752.2 2846.06Z" fill="#FFFFFF"/><path d="M1664.88 2650.59C1668.51 2650.57 1672.03 2649.35 1674.89 2647.12 1676.35 2646.17 1677.59 2644.9 1678.49 2643.4L1679.01 2642.58C1681.56 2638.39 1687.02 2637.05 1691.21 2639.6 1691.23 2639.6 1691.24 2639.61 1691.25 2639.62L1693.79 2641.17C1707.75 2649.69 1725.98 2645.28 1734.5 2631.32 1734.51 2631.3 1734.53 2631.28 1734.54 2631.26 1737.09 2627.07 1742.55 2625.74 1746.74 2628.28 1746.76 2628.29 1746.77 2628.3 1746.78 2628.31 1747.2 2628.56 1747.64 2628.73 1748.07 2628.97 1748.91 2629.45 1749.78 2629.9 1750.66 2630.32 1751.02 2630.48 1751.37 2630.66 1751.73 2630.81 1753 2631.33 1754.29 2631.79 1755.61 2632.18 1758.92 2633.17 1762.35 2633.68 1765.81 2633.69 1777.65 2633.82 1788.69 2627.75 1794.92 2617.68 1804.57 2601.03 1798.91 2579.71 1782.27 2570.04 1776.55 2566.53 1769.98 2564.67 1763.28 2564.66 1757.72 2564.68 1752.24 2566.02 1747.3 2568.58L1746.85 2568.82C1746.33 2569.1 1745.78 2569.32 1745.27 2569.63 1743.58 2567.92 1741.69 2566.43 1739.63 2565.19 1734.92 2562.3 1729.51 2560.76 1723.98 2560.75 1714.25 2560.64 1705.17 2565.64 1700.05 2573.93 1696.74 2579.36 1695.45 2585.79 1696.41 2592.09 1686.57 2593.32 1677.84 2598.99 1672.69 2607.46L1666.4 2617.81C1665.91 2617.78 1665.43 2617.68 1664.92 2617.68 1655.83 2617.71 1648.48 2625.1 1648.52 2634.19 1648.55 2643.22 1655.85 2650.54 1664.88 2650.59ZM1664.79 2624.55 1670.09 2624.97 1672.27 2621.38 1678.56 2611.04C1682.61 2604.34 1689.51 2599.87 1697.27 2598.91L1698.65 2598.73C1698.95 2599.41 1699.21 2600.11 1699.57 2600.77 1700.47 2602.44 1702.56 2603.06 1704.23 2602.15 1705.9 2601.25 1706.52 2599.16 1705.62 2597.49 1705.61 2597.48 1705.6 2597.47 1705.6 2597.46 1703.69 2593.96 1702.84 2589.99 1703.15 2586.02 1703.41 2583.01 1704.36 2580.09 1705.93 2577.5 1709.79 2571.26 1716.64 2567.51 1723.98 2567.62 1728.26 2567.64 1732.46 2568.84 1736.11 2571.1 1737.48 2571.93 1738.75 2572.92 1739.9 2574.04 1737.19 2576.65 1734.95 2579.69 1733.26 2583.05 1732.41 2584.75 1733.11 2586.81 1734.81 2587.66 1735.28 2587.89 1735.8 2588.02 1736.33 2588.02 1737.64 2588.02 1738.83 2587.28 1739.41 2586.11 1741.8 2581.31 1745.59 2577.35 1750.28 2574.77 1754.28 2572.65 1758.75 2571.54 1763.28 2571.54 1768.72 2571.55 1774.05 2573.07 1778.69 2575.91 1792.07 2583.62 1796.7 2600.69 1789.05 2614.1 1784.08 2622.13 1775.25 2626.96 1765.81 2626.81 1762.34 2626.79 1758.91 2626.15 1755.66 2624.92 1754.78 2624.58 1753.89 2624.25 1753.05 2623.83 1752.79 2623.71 1752.53 2623.56 1752.28 2623.43 1748.1 2621.23 1744.46 2618.13 1741.63 2614.34 1740.5 2612.82 1738.34 2612.51 1736.82 2613.65 1735.3 2614.79 1734.99 2616.95 1736.13 2618.47 1736.7 2619.23 1737.3 2619.97 1737.93 2620.69 1734.05 2621.74 1730.74 2624.25 1728.67 2627.69 1722.16 2638.42 1708.17 2641.85 1697.43 2635.33 1697.41 2635.32 1697.39 2635.31 1697.37 2635.3L1694.85 2633.76C1687.44 2629.21 1677.74 2631.52 1673.18 2638.94L1672.6 2639.87C1672.11 2640.66 1671.45 2641.33 1670.67 2641.83 1668.97 2643.02 1666.96 2643.68 1664.88 2643.72 1659.59 2643.72 1655.29 2639.44 1655.29 2634.14 1655.29 2628.88 1659.53 2624.6 1664.79 2624.55Z" fill="#FFFFFF"/></g></g></g><g clip-path="url(#clip4)"><g clip-path="url(#clip5)"><g clip-path="url(#clip6)"><path d="M1757.06 2734C1759.04 2733.84 1761.06 2734.31 1762.81 2735.27 1764.82 2736.29 1766.42 2737.55 1767.69 2739 1765.65 2743.02 1765.64 2747.93 1768.05 2752.11 1768.86 2753.5 1769.86 2754.67 1771.02 2755.74L1793.62 2742.7C1792.88 2738.76 1790.49 2735.01 1785.64 2732.46 1784.37 2731.77 1782.95 2731.39 1781.54 2731.22 1780.88 2729.31 1780.62 2727.17 1780.69 2724.84 1780.82 2722.8 1781.42 2720.81 1782.47 2719.22 1783.06 2718.34 1782.82 2717.17 1781.93 2716.59 1781.05 2716.01 1779.88 2716.25 1779.3 2717.13 1777.87 2719.37 1776.96 2721.97 1776.87 2724.64 1776.73 2727.23 1777.03 2729.46 1777.61 2731.42 1774.39 2732.07 1771.77 2733.59 1769.82 2735.69 1768.47 2734.29 1766.61 2732.96 1764.42 2731.83 1762.06 2730.57 1759.32 2729.97 1756.7 2730.17 1755.65 2730.23 1754.85 2731.13 1754.92 2732.18 1754.98 2733.24 1756.05 2734.15 1757.06 2734Z" fill="#37BD04"/><path d="M1831.07 2755.57 1815.62 2751.5C1815.15 2751.44 1814.65 2751.52 1814.11 2751.72L1807.48 2755.55C1806.56 2754.33 1805.51 2753.08 1804.42 2751.96L1810.42 2746.65C1811.22 2745.96 1811.53 2744.8 1811.31 2743.84L1806.8 2726.58C1806.37 2725.08 1804.88 2724.19 1803.33 2724.54 1801.83 2724.97 1800.95 2726.46 1801.3 2728.01L1805.36 2743.56 1800.37 2747.97C1799.17 2747.02 1798.12 2746.32 1797.16 2746L1772.44 2760.27C1772.24 2761.26 1772.24 2762.57 1772.58 2764.12L1765.12 2766.68 1754.51 2755.12C1753.43 2754 1751.65 2753.94 1750.48 2754.94 1749.36 2756.02 1749.29 2757.8 1750.3 2758.97L1762.17 2771.98C1762.98 2772.82 1764.15 2773.13 1765.22 2772.73L1773.93 2769.67C1774.44 2771.12 1774.95 2772.57 1775.42 2773.94L1769.28 2777.49C1768.92 2777.8 1768.6 2778.2 1768.33 2778.69L1764.13 2794.1C1763.54 2795.53 1764.19 2797.23 1765.63 2797.82 1767.06 2798.41 1768.76 2797.76 1769.35 2796.33L1773.34 2781.69 1777.68 2779.18C1778.02 2779.97 1778.4 2780.62 1778.69 2781.11 1779.44 2782.42 1780.36 2783.64 1781.4 2784.68L1776.12 2789.91C1775.4 2790.54 1775.15 2791.45 1775.3 2792.46L1778.22 2809.43C1778.49 2811.03 1779.95 2812.04 1781.49 2811.69 1781.78 2811.63 1782.16 2811.53 1782.41 2811.39 1783.39 2810.82 1783.99 2809.6 1783.75 2808.42L1781 2792.88 1785.85 2788.22C1790.71 2790.98 1796.64 2791.6 1802.06 2789.46 1802.46 2788.46 1802.43 2787.27 1801.87 2786.29L1792.79 2770.57C1792.27 2769.67 1792.63 2768.59 1793.45 2768.12 1794.35 2767.6 1795.43 2767.96 1795.9 2768.78L1805.02 2784.58C1805.59 2785.56 1806.6 2786.18 1807.59 2786.37 1812.03 2782.72 1814.45 2777.28 1814.45 2771.6L1821.49 2769.61 1833.58 2779.77C1834.47 2780.57 1835.83 2780.65 1836.81 2780.09 1837.06 2779.95 1837.34 2779.68 1837.54 2779.45 1838.57 2778.2 1838.42 2776.43 1837.22 2775.49L1823.93 2764.39C1823.26 2763.79 1822.27 2763.59 1821.31 2763.82L1813.61 2765.98C1813.14 2764.61 1812.6 2763.29 1811.89 2762.06 1811.56 2761.48 1811.18 2760.83 1810.72 2760.22L1815.63 2757.39 1830.27 2761.38C1831.81 2761.58 1833.22 2760.44 1833.43 2758.9 1833.75 2757.19 1832.61 2755.78 1831.07 2755.57Z" fill="#37BD04"/></g></g></g></g></svg>