<svg width="96" height="96" xmlns="http://www.w3.org/2000/svg" xmlns:xlink="http://www.w3.org/1999/xlink" overflow="hidden"><defs><clipPath id="clip0"><rect x="0" y="0" width="96" height="96"/></clipPath></defs><g clip-path="url(#clip0)"><path d="M86.7625 87C84.04 78.1828 80.0825 61.8221 82.4575 46.9214 82.5786 46.1889 82.3715 45.4401 81.8911 44.874 81.4196 44.3192 80.7281 43.9996 80 44L68 44 68 46 80 46C80.1417 45.9992 80.2765 46.0615 80.3677 46.17 80.469 46.2901 80.5114 46.449 80.4834 46.6036 78.2 60.9277 81.4035 76.2579 84.6714 87L74.3747 87C72.3269 82.21 62.587 57.8683 66.0923 35.94 66.2137 35.2076 66.0069 34.459 65.5269 33.8927 65.0554 33.3376 64.3637 33.0178 63.6353 33.0182L32.5479 33.0182C31.8198 33.0178 31.1282 33.3374 30.6567 33.8922 30.177 34.4573 29.9698 35.2046 30.09 35.936 33.5859 57.8726 23.8457 82.2109 21.7981 87L11.3281 87C14.596 76.2579 17.7994 60.928 15.5161 46.6 15.4886 46.4465 15.5312 46.2887 15.6323 46.17 15.7233 46.0613 15.8582 45.9989 16 46L28 46 28 44 16 44C15.2716 43.9996 14.5799 44.3194 14.1084 44.8745 13.6289 45.4396 13.422 46.1868 13.5425 46.918 15.9173 61.822 11.96 78.1828 9.2375 87L3 87 3 89 93 89 93 87ZM23.9682 87C26.611 80.6176 35.48 57.0483 32.064 35.6182 32.0369 35.4647 32.0795 35.3071 32.1802 35.1882 32.2714 35.0797 32.4062 35.0174 32.5479 35.0182L63.6353 35.0182C63.7769 35.0173 63.9115 35.0796 64.0024 35.1882 64.1039 35.3079 64.1464 35.4669 64.1182 35.6213 60.6935 57.0436 69.5617 80.6169 72.2047 87Z" fill="#FFFFFF"/><path d="M46.8013 30.1358C47.8566 30.13 48.8803 29.7746 49.7121 29.1252 50.1387 28.8483 50.4976 28.479 50.7621 28.0446L50.9121 27.8046C51.653 26.5848 53.2424 26.1966 54.4622 26.9375 54.4658 26.9397 54.4694 26.9419 54.473 26.9441L55.213 27.3941C59.2741 29.8734 64.576 28.5911 67.0553 24.53 67.0589 24.5242 67.0624 24.5184 67.066 24.5125 67.8071 23.2928 69.3966 22.9049 70.6163 23.646 70.6198 23.6482 70.6234 23.6503 70.6269 23.6525 70.7488 23.7267 70.8775 23.7775 71.0011 23.8464 71.2473 23.986 71.4989 24.1163 71.7559 24.2374 71.86 24.2851 71.9625 24.3374 72.0674 24.3815 72.4359 24.5338 72.812 24.6668 73.1943 24.7801 74.1579 25.0673 75.1577 25.215 76.1632 25.2188 79.6068 25.2572 82.8193 23.49 84.6304 20.5608 87.4384 15.7174 85.7911 9.5148 80.95 6.7028 79.2883 5.68297 77.3774 5.14155 75.4277 5.1382 73.8091 5.14217 72.2149 5.53343 70.7783 6.2793L70.6477 6.3463C70.4954 6.4278 70.3352 6.4932 70.1877 6.5828 69.6967 6.08621 69.1458 5.65264 68.5477 5.2921 67.178 4.44982 65.6021 4.00265 63.9941 4 61.1624 3.96903 58.5214 5.42366 57.0341 7.8335 56.0705 9.41503 55.6952 11.2856 55.9741 13.1164 53.1117 13.4764 50.5703 15.1233 49.0724 17.5889L47.2424 20.6005C47.1024 20.5905 46.9624 20.5605 46.8124 20.5605 44.1682 20.5695 42.032 22.7203 42.041 25.3645 42.05 27.992 44.1749 30.1214 46.8024 30.1358ZM46.7756 22.5607 48.3165 22.6825 48.9506 21.6393 50.78 18.6293C51.9596 16.6818 53.9659 15.3816 56.2253 15.1004L56.6243 15.0498C56.713 15.2473 56.7879 15.4498 56.8931 15.641 57.1559 16.1268 57.7627 16.3075 58.2485 16.0447 58.7342 15.7819 58.915 15.1751 58.6522 14.6894 58.6502 14.6856 58.6481 14.6818 58.646 14.6781 58.0906 13.6622 57.8436 12.5064 57.9352 11.3523 58.0111 10.4747 58.2875 9.62619 58.7432 8.8723 59.8657 7.05717 61.8601 5.96618 63.994 6 65.2406 6.00467 66.4616 6.35424 67.5218 7.01 67.9207 7.25382 68.2912 7.54114 68.6267 7.8667 67.8381 8.62417 67.1841 9.51036 66.6929 10.4873 66.4475 10.9818 66.6492 11.5816 67.1436 11.8273 67.2814 11.8962 67.4333 11.932 67.5874 11.9318 67.9674 11.9321 68.3148 11.7171 68.4839 11.3767 69.1772 9.98121 70.2796 8.8303 71.6439 8.0775 72.8102 7.46231 74.1085 7.14001 75.4271 7.1384 77.01 7.14255 78.5611 7.58291 79.91 8.4111 83.8027 10.6524 85.1497 15.6197 82.9225 19.5205 81.4768 21.8561 78.9103 23.2603 76.1638 23.2185 75.1547 23.2109 74.1549 23.0247 73.2108 22.6685 72.9539 22.5685 72.6951 22.4723 72.4496 22.3508 72.3741 22.3146 72.3009 22.2731 72.2263 22.2347 71.0109 21.5941 69.9532 20.6912 69.13 19.5913 68.799 19.149 68.1721 19.0588 67.7298 19.3898 67.2875 19.7208 67.1973 20.3477 67.5283 20.79 67.6951 21.0129 67.8701 21.2279 68.0511 21.4365 66.9251 21.7437 65.9608 22.4729 65.3585 23.4726 63.4635 26.5963 59.3951 27.5923 56.2714 25.6973 56.2652 25.6935 56.2591 25.6898 56.2529 25.686L55.5209 25.2408C53.3645 23.9156 50.5422 24.589 49.2164 26.745L49.0472 27.0162C48.9052 27.246 48.714 27.4413 48.4872 27.5881 47.992 27.9338 47.4052 28.1246 46.8014 28.1362 45.2619 28.1374 44.0128 26.8903 44.0116 25.3508 44.0104 23.8196 45.2445 22.574 46.7757 22.5611Z" fill="#FFFFFF"/></g></svg>