<svg width="96" height="96" xmlns="http://www.w3.org/2000/svg" xmlns:xlink="http://www.w3.org/1999/xlink" overflow="hidden"><defs><clipPath id="clip0"><rect x="0" y="0" width="96" height="96"/></clipPath></defs><g clip-path="url(#clip0)"><path d="M84 81 84 69 79.012 69 79.012 41.4 82.575 39.962C83.4151 39.6228 83.9222 38.7612 83.811 37.862L82.29 25.57C82.1616 24.5285 81.7623 23.5389 81.132 22.7L73.691 12.8C73.1466 12.0755 72.1832 11.8076 71.343 12.147L63.5 15.314C62.4798 15.7298 61.988 16.8923 62.4 17.914L66.337 27.7 26 44.4 26 42 10 42 10 58 13 58 13 81 4 81 4 83 92 83 92 81ZM82 81 74 81 74 71 82 71ZM77.012 69 72 69 72 81 53.006 81 48.561 41.223 68.47 32.977 72.124 42.027C72.5398 43.0472 73.7023 43.539 74.724 43.127L77.009 42.205ZM26 58 26 50.569 39.252 45.079 35.237 81 23 81 23 58ZM38.816 67 49.429 67 50.099 73 38.144 73ZM39.039 65 39.715 58.955 48.53 58.955 49.205 65ZM39.939 56.955 40.6 51 47.638 51 48.303 56.955ZM46.639 42.02 47.419 49 40.826 49 41.362 44.2ZM37.921 75 50.321 75 50.991 81 37.25 81ZM72.092 14 79.533 23.9C79.9524 24.4589 80.2185 25.1176 80.305 25.811L81.826 38.105 73.979 41.274 64.244 17.169ZM67.086 29.55 67.721 31.122 26 48.4 26 46.569ZM12 44 24 44 24 56 12 56ZM15 58 21 58 21 81 15 81Z" fill="#FFFFFF"/></g></svg>