<svg width="330" height="330" xmlns="http://www.w3.org/2000/svg" xmlns:xlink="http://www.w3.org/1999/xlink" overflow="hidden"><defs><clipPath id="clip0"><rect x="1469" y="1928" width="330" height="330"/></clipPath><clipPath id="clip1"><path d="M1669.14 2110.51 1747.74 2065.14 1793.11 2143.74 1714.51 2189.11Z" fill-rule="evenodd" clip-rule="evenodd"/></clipPath><clipPath id="clip2"><path d="M1669.14 2110.51 1747.74 2065.14 1793.11 2143.74 1714.51 2189.11Z" fill-rule="evenodd" clip-rule="evenodd"/></clipPath><clipPath id="clip3"><path d="M1669.14 2110.51 1747.74 2065.14 1793.11 2143.74 1714.51 2189.11Z" fill-rule="evenodd" clip-rule="evenodd"/></clipPath></defs><g clip-path="url(#clip0)" transform="translate(-1469 -1928)"><path d="M1757.75 2206.44 1757.75 2165.19 1740.6 2165.19 1740.6 2070.31 1752.85 2065.37C1755.74 2064.2 1757.48 2061.24 1757.1 2058.15L1751.87 2015.9C1751.43 2012.32 1750.06 2008.92 1747.89 2006.03L1722.31 1972C1720.44 1969.51 1717.13 1968.59 1714.24 1969.76L1687.28 1980.64C1683.77 1982.07 1682.08 1986.07 1683.5 1989.58L1697.03 2023.22 1558.37 2080.62 1558.37 2072.38 1503.37 2072.38 1503.37 2127.38 1513.69 2127.38 1513.69 2206.44 1482.75 2206.44 1482.75 2213.31 1785.25 2213.31 1785.25 2206.44ZM1750.87 2206.44 1723.37 2206.44 1723.37 2172.06 1750.87 2172.06ZM1733.73 2165.19 1716.5 2165.19 1716.5 2206.44 1651.21 2206.44 1635.93 2069.7 1704.37 2041.36 1716.93 2072.47C1718.36 2075.97 1722.35 2077.67 1725.86 2076.25L1733.72 2073.08ZM1558.37 2127.38 1558.37 2101.83 1603.93 2082.96 1590.13 2206.44 1548.06 2206.44 1548.06 2127.38ZM1602.43 2158.31 1638.91 2158.31 1641.22 2178.94 1600.12 2178.94ZM1603.2 2151.44 1605.52 2130.66 1635.82 2130.66 1638.14 2151.44ZM1606.29 2123.78 1608.56 2103.31 1632.76 2103.31 1635.04 2123.78ZM1629.32 2072.44 1632 2096.44 1609.34 2096.44 1611.18 2079.94ZM1599.35 2185.81 1641.98 2185.81 1644.28 2206.44 1597.05 2206.44ZM1716.82 1976.13 1742.39 2010.16C1743.84 2012.08 1744.75 2014.34 1745.05 2016.73L1750.28 2058.99 1723.3 2069.88 1689.84 1987.02ZM1699.61 2029.58 1701.79 2034.98 1558.37 2094.38 1558.37 2088.08ZM1510.25 2079.25 1551.5 2079.25 1551.5 2120.5 1510.25 2120.5ZM1520.56 2127.38 1541.19 2127.38 1541.19 2206.44 1520.56 2206.44Z" fill="#FFFFFF"/><g clip-path="url(#clip1)"><g clip-path="url(#clip2)"><g clip-path="url(#clip3)"><path d="M1699.31 2101.5C1701.29 2101.34 1703.31 2101.81 1705.06 2102.77 1707.07 2103.79 1708.67 2105.05 1709.94 2106.5 1707.9 2110.52 1707.89 2115.43 1710.3 2119.61 1711.11 2121 1712.11 2122.17 1713.27 2123.24L1735.87 2110.2C1735.13 2106.26 1732.74 2102.51 1727.89 2099.96 1726.62 2099.27 1725.2 2098.89 1723.79 2098.72 1723.13 2096.81 1722.87 2094.67 1722.94 2092.34 1723.07 2090.3 1723.67 2088.31 1724.72 2086.72 1725.31 2085.84 1725.07 2084.67 1724.18 2084.09 1723.3 2083.51 1722.13 2083.75 1721.55 2084.63 1720.12 2086.87 1719.21 2089.47 1719.12 2092.14 1718.98 2094.73 1719.28 2096.96 1719.86 2098.92 1716.64 2099.57 1714.02 2101.09 1712.07 2103.19 1710.72 2101.79 1708.86 2100.46 1706.67 2099.33 1704.31 2098.07 1701.57 2097.47 1698.95 2097.67 1697.9 2097.73 1697.1 2098.63 1697.17 2099.68 1697.23 2100.74 1698.3 2101.65 1699.31 2101.5Z" fill="#37BD04"/><path d="M1773.32 2123.07 1757.87 2119C1757.4 2118.94 1756.9 2119.02 1756.36 2119.22L1749.73 2123.05C1748.81 2121.83 1747.76 2120.58 1746.67 2119.46L1752.67 2114.15C1753.47 2113.46 1753.78 2112.3 1753.56 2111.34L1749.05 2094.08C1748.62 2092.58 1747.13 2091.69 1745.58 2092.04 1744.08 2092.47 1743.2 2093.96 1743.55 2095.51L1747.61 2111.06 1742.62 2115.47C1741.42 2114.52 1740.37 2113.82 1739.41 2113.5L1714.69 2127.77C1714.49 2128.76 1714.49 2130.07 1714.83 2131.62L1707.37 2134.18 1696.76 2122.62C1695.68 2121.5 1693.9 2121.44 1692.73 2122.44 1691.61 2123.52 1691.54 2125.3 1692.55 2126.47L1704.42 2139.48C1705.23 2140.32 1706.4 2140.63 1707.47 2140.23L1716.18 2137.17C1716.69 2138.62 1717.2 2140.07 1717.67 2141.44L1711.53 2144.99C1711.17 2145.3 1710.85 2145.7 1710.58 2146.19L1706.38 2161.6C1705.79 2163.03 1706.44 2164.73 1707.88 2165.32 1709.31 2165.91 1711.01 2165.26 1711.6 2163.83L1715.59 2149.19 1719.93 2146.68C1720.27 2147.47 1720.65 2148.12 1720.94 2148.61 1721.69 2149.92 1722.61 2151.14 1723.65 2152.18L1718.37 2157.41C1717.65 2158.04 1717.4 2158.95 1717.55 2159.96L1720.47 2176.93C1720.74 2178.53 1722.2 2179.54 1723.74 2179.19 1724.03 2179.13 1724.41 2179.03 1724.66 2178.89 1725.64 2178.32 1726.24 2177.1 1726 2175.92L1723.25 2160.38 1728.1 2155.72C1732.96 2158.48 1738.89 2159.1 1744.31 2156.96 1744.71 2155.96 1744.68 2154.77 1744.12 2153.79L1735.04 2138.07C1734.52 2137.17 1734.88 2136.09 1735.7 2135.62 1736.6 2135.1 1737.68 2135.46 1738.15 2136.28L1747.27 2152.08C1747.84 2153.06 1748.85 2153.68 1749.84 2153.87 1754.28 2150.22 1756.7 2144.78 1756.7 2139.1L1763.74 2137.11 1775.83 2147.27C1776.72 2148.07 1778.08 2148.15 1779.06 2147.59 1779.31 2147.45 1779.59 2147.18 1779.79 2146.95 1780.82 2145.7 1780.67 2143.93 1779.47 2142.99L1766.18 2131.89C1765.51 2131.29 1764.52 2131.09 1763.56 2131.32L1755.86 2133.48C1755.39 2132.11 1754.85 2130.79 1754.14 2129.56 1753.81 2128.98 1753.43 2128.33 1752.97 2127.72L1757.88 2124.89 1772.52 2128.88C1774.06 2129.08 1775.47 2127.94 1775.68 2126.4 1776 2124.69 1774.86 2123.28 1773.32 2123.07Z" fill="#37BD04"/></g></g></g></g></svg>