<svg width="330" height="330" xmlns="http://www.w3.org/2000/svg" xmlns:xlink="http://www.w3.org/1999/xlink" overflow="hidden"><defs><clipPath id="clip0"><rect x="1513" y="847" width="330" height="330"/></clipPath><clipPath id="clip1"><path d="M1699.39 980.261 1777.99 934.893 1823.36 1013.49 1744.76 1058.86Z" fill-rule="evenodd" clip-rule="evenodd"/></clipPath><clipPath id="clip2"><path d="M1699.39 980.261 1777.99 934.893 1823.36 1013.49 1744.76 1058.86Z" fill-rule="evenodd" clip-rule="evenodd"/></clipPath><clipPath id="clip3"><path d="M1699.39 980.261 1777.99 934.893 1823.36 1013.49 1744.76 1058.86Z" fill-rule="evenodd" clip-rule="evenodd"/></clipPath></defs><g clip-path="url(#clip0)" transform="translate(-1513 -847)"><path d="M1702.12 953.562 1688.35 953.562 1688.35 949.314 1682.06 936.736C1680.9 934.401 1678.52 932.928 1675.91 932.938L1667.73 932.938 1667.73 912.312 1698.66 912.312C1702.46 912.312 1705.54 909.235 1705.54 905.438L1705.54 898.562C1705.54 894.765 1702.46 891.688 1698.66 891.688L1673.01 891.688 1668.17 884.438C1666.9 882.521 1664.75 881.371 1662.45 881.375L1645.51 881.375C1643.21 881.371 1641.06 882.521 1639.79 884.438L1634.95 891.688 1609.29 891.688C1605.49 891.688 1602.41 894.765 1602.41 898.562L1602.41 905.438C1602.41 909.235 1605.49 912.312 1609.29 912.312L1640.23 912.312 1640.23 932.938 1632.04 932.938C1629.43 932.928 1627.05 934.401 1625.89 936.736L1619.6 949.314 1619.6 953.562 1578.35 953.562 1578.35 948.812C1578.36 946.205 1576.89 943.82 1574.55 942.662L1561.97 936.375 1547.41 936.375 1547.41 1025.75 1561.97 1025.75 1574.55 1019.46C1576.89 1018.31 1578.36 1015.92 1578.35 1013.31L1578.35 1008.56 1702.12 1008.56C1719.2 1008.58 1733.04 1022.42 1733.06 1039.5L1733.06 1046.38 1788.06 1046.38 1788.06 1039.5C1788.01 992.06 1749.56 953.615 1702.12 953.562ZM1698.66 905.438 1674.6 905.438 1674.6 898.562 1698.66 898.562ZM1645.51 888.25 1662.45 888.25 1667.73 896.156 1667.73 905.438 1640.23 905.438 1640.23 896.156ZM1609.29 898.562 1633.35 898.562 1633.35 905.438 1609.29 905.438ZM1647.1 912.312 1660.85 912.312 1660.85 932.938 1647.1 932.938ZM1626.48 950.936 1632.04 939.812 1675.91 939.812 1681.48 950.936 1681.48 953.562 1626.48 953.562ZM1571.48 1013.31 1560.35 1018.88 1554.29 1018.88 1554.29 943.25 1560.35 943.25 1571.48 948.812 1571.48 1013.31ZM1739.94 1039.5C1739.88 1018.64 1722.98 1001.74 1702.12 1001.69L1578.35 1001.69 1578.35 960.438 1702.1 960.438C1745.71 960.56 1781.04 995.886 1781.16 1039.5Z" fill="#FFFFFF"/><path d="M1737.7 1118.91C1737.55 1131.85 1747.92 1142.47 1760.86 1142.62L1761.16 1142.62C1773.99 1142.62 1784.44 1132.3 1784.6 1119.46L1784.6 1118.91C1784.6 1103.81 1761.15 1070.49 1761.15 1070.49 1761.15 1070.49 1737.7 1103.89 1737.7 1118.91ZM1777.73 1118.99 1777.73 1119.39C1777.58 1128.44 1770.21 1135.72 1761.16 1135.75L1760.95 1135.75C1751.78 1135.62 1744.45 1128.08 1744.58 1118.91 1744.58 1111.45 1753.28 1095.32 1761.16 1082.9 1769.03 1095.27 1777.73 1111.39 1777.73 1118.97Z" fill="#FFFFFF"/><g clip-path="url(#clip1)"><g clip-path="url(#clip2)"><g clip-path="url(#clip3)"><path d="M1729.56 971.253C1731.54 971.092 1733.56 971.564 1735.31 972.518 1737.32 973.541 1738.92 974.8 1740.19 976.249 1738.15 980.268 1738.14 985.181 1740.55 989.356 1741.36 990.748 1742.36 991.916 1743.52 992.99L1766.12 979.946C1765.38 976.01 1762.99 972.257 1758.14 969.71 1756.87 969.024 1755.45 968.643 1754.04 968.473 1753.38 966.565 1753.12 964.42 1753.19 962.087 1753.32 960.046 1753.92 958.062 1754.97 956.474 1755.56 955.592 1755.32 954.421 1754.43 953.838 1753.55 953.256 1752.38 953.495 1751.8 954.377 1750.37 956.623 1749.46 959.218 1749.37 961.892 1749.23 964.484 1749.53 966.711 1750.11 968.666 1746.89 969.325 1744.27 970.837 1742.32 972.945 1740.97 971.544 1739.11 970.215 1736.92 969.075 1734.56 967.819 1731.82 967.222 1729.2 967.421 1728.15 967.484 1727.35 968.378 1727.42 969.433 1727.48 970.488 1728.55 971.398 1729.56 971.253Z" fill="#37BD04"/><path d="M1803.57 992.822 1788.12 988.75C1787.65 988.694 1787.15 988.766 1786.61 988.968L1779.98 992.796C1779.06 991.58 1778.01 990.33 1776.92 989.209L1782.92 983.895C1783.72 983.212 1784.03 982.049 1783.81 981.089L1779.3 963.826C1778.87 962.327 1777.38 961.442 1775.83 961.789 1774.33 962.217 1773.45 963.71 1773.8 965.256L1777.86 980.81 1772.87 985.217C1771.67 984.272 1770.62 983.573 1769.66 983.249L1744.94 997.521C1744.74 998.507 1744.74 999.82 1745.08 1001.37L1737.62 1003.93 1727.01 992.37C1725.93 991.249 1724.15 991.186 1722.98 992.188 1721.86 993.272 1721.79 995.054 1722.8 996.222L1734.67 1009.23C1735.48 1010.07 1736.65 1010.38 1737.72 1009.98L1746.43 1006.92C1746.94 1008.37 1747.45 1009.82 1747.92 1011.19L1741.78 1014.74C1741.42 1015.05 1741.1 1015.45 1740.83 1015.94L1736.63 1031.35C1736.04 1032.78 1736.69 1034.48 1738.13 1035.07 1739.56 1035.66 1741.26 1035.01 1741.85 1033.58L1745.84 1018.94 1750.18 1016.43C1750.52 1017.22 1750.9 1017.87 1751.19 1018.36 1751.94 1019.67 1752.86 1020.89 1753.9 1021.93L1748.62 1027.16C1747.9 1027.79 1747.65 1028.7 1747.8 1029.71L1750.72 1046.68C1750.99 1048.28 1752.45 1049.29 1753.99 1048.94 1754.28 1048.88 1754.66 1048.78 1754.91 1048.64 1755.89 1048.07 1756.49 1046.85 1756.25 1045.67L1753.5 1030.13 1758.35 1025.47C1763.21 1028.23 1769.14 1028.85 1774.56 1026.71 1774.96 1025.71 1774.93 1024.52 1774.37 1023.54L1765.29 1007.82C1764.77 1006.92 1765.13 1005.84 1765.95 1005.37 1766.85 1004.85 1767.93 1005.21 1768.4 1006.03L1777.52 1021.83C1778.09 1022.81 1779.1 1023.43 1780.09 1023.62 1784.53 1019.97 1786.95 1014.53 1786.95 1008.85L1793.99 1006.86 1806.08 1017.02C1806.97 1017.82 1808.33 1017.9 1809.31 1017.34 1809.56 1017.2 1809.84 1016.93 1810.04 1016.7 1811.07 1015.45 1810.92 1013.68 1809.72 1012.74L1796.43 1001.64C1795.76 1001.04 1794.77 1000.85 1793.81 1001.07L1786.11 1003.23C1785.64 1001.86 1785.1 1000.54 1784.39 999.307 1784.06 998.734 1783.68 998.079 1783.22 997.472L1788.13 994.636 1802.77 998.629C1804.31 998.834 1805.72 997.69 1805.93 996.153 1806.25 994.44 1805.11 993.026 1803.57 992.822Z" fill="#37BD04"/></g></g></g></g></svg>