<svg width="96" height="96" xmlns="http://www.w3.org/2000/svg" xmlns:xlink="http://www.w3.org/1999/xlink" overflow="hidden"><defs><clipPath id="clip0"><rect x="0" y="0" width="96" height="96"/></clipPath></defs><g clip-path="url(#clip0)"><path d="M55.018 31 51.011 31 51.011 29.764 49.182 26.105C48.845 25.4258 48.1512 24.9972 47.393 25L45.011 25 45.011 19 54.011 19C55.1156 19 56.011 18.1046 56.011 17L56.011 15C56.011 13.8954 55.1156 13 54.011 13L46.547 13 45.14 10.891C44.7701 10.3335 44.1451 9.99886 43.476 10L38.547 10C37.8779 9.99886 37.2529 10.3335 36.883 10.891L35.476 13 28.011 13C26.9064 13 26.011 13.8954 26.011 15L26.011 17C26.011 18.1046 26.9064 19 28.011 19L37.011 19 37.011 25 34.63 25C33.8718 24.9972 33.178 25.4258 32.841 26.105L31.011 29.764 31.011 31 19.011 31 19.011 29.618C19.014 28.8597 18.5854 28.1658 17.906 27.829L14.247 26 10.011 26 10.011 52 14.247 52 17.906 50.171C18.5854 49.8342 19.014 49.1403 19.011 48.382L19.011 47 55.018 47C59.9863 47.0055 64.0125 51.0317 64.018 56L64.018 58 80.018 58 80.018 56C80.0026 42.1993 68.8187 31.0154 55.018 31ZM54.011 17 47.011 17 47.011 15 54.011 15ZM38.547 12 43.476 12 45.011 14.3 45.011 17 37.011 17 37.011 14.3ZM28.011 15 35.011 15 35.011 17 28.011 17ZM39.011 19 43.011 19 43.011 25 39.011 25ZM33.011 30.236 34.63 27 47.393 27 49.011 30.236 49.011 31 33.011 31ZM17.011 48.382 13.776 50 12.011 50 12.011 28 13.775 28 17.011 29.618 17.011 48.382ZM66.018 56C66.0021 49.9315 61.0865 45.0159 55.018 45L19.011 45 19.011 33 55.011 33C67.6987 33.0357 77.9753 43.3123 78.011 56Z" fill="#36BC03"/><path d="M65.368 79.1C65.3247 82.8655 68.3406 85.9539 72.106 86L72.191 86C75.9255 85.9986 78.965 82.9952 79.011 79.261L79.011 79.1C79.011 74.709 72.19 65.016 72.19 65.016 72.19 65.016 65.368 74.732 65.368 79.1ZM77.011 79.125 77.011 79.241C76.9675 81.8748 74.8252 83.99 72.191 84L72.131 84C69.4629 83.9616 67.3307 81.7681 67.368 79.1 67.368 76.931 69.9 72.238 72.192 68.624 74.482 72.224 77.011 76.912 77.011 79.12Z" fill="#36BC03"/></g></svg>